<?xml version="1.0" encoding="UTF-8"?>
<!DOCTYPE svg PUBLIC "-//W3C//DTD SVG 1.1//EN" "http://www.w3.org/Graphics/SVG/1.1/DTD/svg11.dtd">
<svg xmlns="http://www.w3.org/2000/svg" version="1.1" width="489px" height="53px" style="shape-rendering:geometricPrecision; text-rendering:geometricPrecision; image-rendering:optimizeQuality; fill-rule:evenodd; clip-rule:evenodd" xmlns:xlink="http://www.w3.org/1999/xlink">
<g><path style="opacity:0.901" fill="#fefffe" d="M 8.5,-0.5 C 13.5,-0.5 18.5,-0.5 23.5,-0.5C 22.6292,5.85395 21.6292,12.1873 20.5,18.5C 23.8333,18.5 27.1667,18.5 30.5,18.5C 31.2438,13.7809 32.2438,9.11427 33.5,4.5C 38.456,3.50585 43.456,3.17252 48.5,3.5C 46.5814,16.9272 44.0814,30.2606 41,43.5C 35.9283,44.4714 30.7616,44.8047 25.5,44.5C 26.5,38.5 27.5,32.5 28.5,26.5C 25.1667,26.5 21.8333,26.5 18.5,26.5C 18.2181,29.9097 17.5514,33.243 16.5,36.5C 11.1977,37.6628 5.86433,37.8295 0.5,37C 1.73927,33.6358 2.40594,30.1358 2.5,26.5C 1.5,26.5 0.5,26.5 -0.5,26.5C -0.5,25.1667 -0.5,23.8333 -0.5,22.5C 0.434475,21.4324 0.767809,20.099 0.5,18.5C 1.83333,18.5 3.16667,18.5 4.5,18.5C 5.58261,12.0855 6.91594,5.75221 8.5,-0.5 Z"/></g>
<g><path style="opacity:0.914" fill="#fefffe" d="M 54.5,-0.5 C 59.8333,-0.5 65.1667,-0.5 70.5,-0.5C 69.7659,0.707917 69.4326,2.04125 69.5,3.5C 76.175,3.33375 82.8417,3.50042 89.5,4C 92.4417,4.93965 93.7751,6.93965 93.5,10C 91.462,21.1902 89.2953,32.3568 87,43.5C 81.918,44.637 76.7513,44.8037 71.5,44C 72.7393,40.6358 73.4059,37.1358 73.5,33.5C 71.1667,33.5 68.8333,33.5 66.5,33.5C 66.8333,30.8333 67.1667,28.1667 67.5,25.5C 70.1667,25.5 72.8333,25.5 75.5,25.5C 76.1848,20.9071 77.1848,16.4071 78.5,12C 74.8484,11.5014 71.1817,11.3347 67.5,11.5C 65.9617,20.5248 64.295,29.5248 62.5,38.5C 57.1254,38.8282 51.7921,38.4948 46.5,37.5C 49.2959,24.8533 51.9626,12.1866 54.5,-0.5 Z"/></g>
<g><path style="opacity:0.904" fill="#fefffe" d="M 102.5,-0.5 C 107.833,-0.5 113.167,-0.5 118.5,-0.5C 117.208,3.79317 116.374,8.12651 116,12.5C 118.833,9.66667 121.667,6.83333 124.5,4C 129.833,3.33333 135.167,3.33333 140.5,4C 134.445,10.3843 128.778,17.051 123.5,24C 127.932,33.3593 131.932,42.8593 135.5,52.5C 130.5,52.5 125.5,52.5 120.5,52.5C 117.951,46.4008 115.118,40.4008 112,34.5C 110.722,37.7206 109.889,41.054 109.5,44.5C 104.125,44.8282 98.7921,44.4948 93.5,43.5C 96.7567,28.8831 99.7567,14.2164 102.5,-0.5 Z"/></g>
<g><path style="opacity:0.901" fill="#fefffe" d="M 353.5,-0.5 C 358.5,-0.5 363.5,-0.5 368.5,-0.5C 367.629,5.85395 366.629,12.1873 365.5,18.5C 368.833,18.5 372.167,18.5 375.5,18.5C 376.244,13.7809 377.244,9.11427 378.5,4.5C 383.456,3.50585 388.456,3.17252 393.5,3.5C 391.581,16.9272 389.081,30.2606 386,43.5C 380.928,44.4714 375.762,44.8047 370.5,44.5C 371.5,38.5 372.5,32.5 373.5,26.5C 370.167,26.5 366.833,26.5 363.5,26.5C 363.218,29.9097 362.551,33.243 361.5,36.5C 356.198,37.6628 350.864,37.8295 345.5,37C 346.739,33.6358 347.406,30.1358 347.5,26.5C 346.5,26.5 345.5,26.5 344.5,26.5C 344.833,23.8333 345.167,21.1667 345.5,18.5C 346.833,18.5 348.167,18.5 349.5,18.5C 350.583,12.0855 351.916,5.75221 353.5,-0.5 Z"/></g>
<g><path style="opacity:0.913" fill="#fefffe" d="M 169.5,3.5 C 174.875,3.17182 180.208,3.50515 185.5,4.5C 183.228,15.1313 181.061,25.7979 179,36.5C 178.573,40.5271 176.406,43.0271 172.5,44C 161.833,44.6667 151.167,44.6667 140.5,44C 138.667,43.5 137.5,42.3333 137,40.5C 137.91,32.4472 139.41,24.4472 141.5,16.5C 140.167,15.8333 138.833,15.1667 137.5,14.5C 138.189,12.556 138.689,10.556 139,8.5C 145.41,7.52234 151.91,7.189 158.5,7.5C 156.51,17.1094 154.843,26.776 153.5,36.5C 156.833,36.5 160.167,36.5 163.5,36.5C 165.243,25.4533 167.243,14.4533 169.5,3.5 Z"/></g>
<g><path style="opacity:0.903" fill="#fefffe" d="M 191.5,3.5 C 205.167,3.5 218.833,3.5 232.5,3.5C 231.579,11.273 230.079,18.9396 228,26.5C 226.022,28.7385 223.522,30.0718 220.5,30.5C 222.073,35.0553 223.74,39.5553 225.5,44C 220.167,44.6667 214.833,44.6667 209.5,44C 207.808,39.9262 206.308,35.7595 205,31.5C 203.989,30.6634 202.822,30.33 201.5,30.5C 200.704,35.147 200.037,39.8137 199.5,44.5C 194.167,44.5 188.833,44.5 183.5,44.5C 185.138,34.8093 186.971,25.1426 189,15.5C 194.072,14.5286 199.238,14.1953 204.5,14.5C 204.756,16.7925 204.423,18.9592 203.5,21C 207.152,21.4986 210.818,21.6653 214.5,21.5C 214.833,18.1667 215.167,14.8333 215.5,11.5C 207.167,11.5 198.833,11.5 190.5,11.5C 190.401,8.76275 190.735,6.09609 191.5,3.5 Z"/></g>
<g><path style="opacity:0.911" fill="#fefffe" d="M 244.5,3.5 C 254.506,3.33352 264.506,3.50019 274.5,4C 275.931,4.46524 277.097,5.29857 278,6.5C 277.761,18.6932 275.595,30.5265 271.5,42C 270.167,42.6667 268.833,43.3333 267.5,44C 256.833,44.6667 246.167,44.6667 235.5,44C 233.079,43.0016 231.745,41.1683 231.5,38.5C 233.431,27.6753 235.931,17.0086 239,6.5C 240.876,5.39127 242.709,4.39127 244.5,3.5 Z M 252.5,11.5 C 255.833,11.5 259.167,11.5 262.5,11.5C 261.167,19.8333 259.833,28.1667 258.5,36.5C 254.818,36.6653 251.152,36.4986 247.5,36C 249.61,27.9494 251.277,19.7827 252.5,11.5 Z"/></g>
<g><path style="opacity:0.894" fill="#fefffe" d="M 313.5,3.5 C 324.167,3.5 334.833,3.5 345.5,3.5C 345.425,6.20616 345.092,8.87283 344.5,11.5C 337.137,11.1694 329.803,11.5027 322.5,12.5C 321.652,14.4086 321.318,16.4086 321.5,18.5C 328.363,18.8407 334.863,20.5074 341,23.5C 341.036,29.3217 340.036,34.9883 338,40.5C 336.786,42.0488 335.286,43.2155 333.5,44C 322.167,44.6667 310.833,44.6667 299.5,44C 300.227,41.876 300.894,39.7094 301.5,37.5C 309.248,37.1208 316.748,36.1208 324,34.5C 324.72,32.8876 324.554,31.3876 323.5,30C 318.805,29.1277 314.139,28.1277 309.5,27C 307.671,26.7265 306.171,25.8932 305,24.5C 304.748,19.4132 305.415,14.4132 307,9.5C 308.436,6.55813 310.603,4.55813 313.5,3.5 Z"/></g>
<g><path style="opacity:0.911" fill="#fefffe" d="M 405.5,3.5 C 415.506,3.33352 425.506,3.50019 435.5,4C 436.931,4.46524 438.097,5.29857 439,6.5C 438.761,18.6932 436.595,30.5265 432.5,42C 431.167,42.6667 429.833,43.3333 428.5,44C 417.833,44.6667 407.167,44.6667 396.5,44C 394.079,43.0016 392.745,41.1683 392.5,38.5C 394.431,27.6753 396.931,17.0086 400,6.5C 401.876,5.39127 403.709,4.39127 405.5,3.5 Z M 413.5,11.5 C 416.833,11.5 420.167,11.5 423.5,11.5C 422.167,19.8333 420.833,28.1667 419.5,36.5C 415.818,36.6653 412.152,36.4986 408.5,36C 410.61,27.9494 412.277,19.7827 413.5,11.5 Z"/></g>
<g><path style="opacity:0.876" fill="#fefffe" d="M 488.5,6.5 C 488.5,9.16667 488.5,11.8333 488.5,14.5C 487.162,18.9922 485.995,23.6589 485,28.5C 483.833,29.6667 482.667,30.8333 481.5,32C 474.924,33.3774 468.257,33.8774 461.5,33.5C 461.833,30.8333 462.167,28.1667 462.5,25.5C 465.167,25.5 467.833,25.5 470.5,25.5C 470.929,20.8514 471.929,16.3514 473.5,12C 464.84,11.5002 456.173,11.3336 447.5,11.5C 447.575,8.79384 447.908,6.12717 448.5,3.5C 460.505,3.33346 472.505,3.50013 484.5,4C 485.984,4.66218 487.317,5.49551 488.5,6.5 Z"/></g>
<g><path style="opacity:0.897" fill="#fefffe" d="M 446.5,14.5 C 451.5,14.5 456.5,14.5 461.5,14.5C 460.092,24.5411 458.425,34.5411 456.5,44.5C 451.167,44.5 445.833,44.5 440.5,44.5C 442.373,34.4686 444.373,24.4686 446.5,14.5 Z"/></g>
</svg>
